<svg enable-background="new 0 0 80 80" height="85" viewBox="0 0 80 80" width="85" xmlns="http://www.w3.org/2000/svg"><path d="m40 0c22.091 0 40 17.909 40 40s-17.909 40-40 40-40-17.909-40-40 17.909-40 40-40z" fill="#fff"/><path d="m50.378 32.576c0 1.005-.815 1.821-1.821 1.821-1.005 0-1.82-.816-1.82-1.821s.815-1.821 1.82-1.821c1.006 0 1.821.816 1.821 1.821zm4.249-5.463c0-.341-.304-.607-.646-.607-6.601 0-10.223 1.518-14.964 6.241-1.081 1.1-2.2 2.352-3.338 3.699l-7.188.379c-.19.019-.379.133-.493.304l-4.249 7.284c-.133.228-.095.53.095.739l1.214 1.215c.114.113.285.17.437.17.057 0 .114 0 .17-.02l5.235-1.611 5.33 5.33-1.612 5.236c-.057.209 0 .437.152.606l1.214 1.214c.133.114.284.171.436.171.114 0 .208-.021.304-.075l7.283-4.25c.171-.113.284-.304.305-.492l.379-7.19c1.347-1.138 2.599-2.257 3.699-3.339 4.492-4.514 6.237-8.706 6.237-15.004z" fill="#8cc9f0"/></svg>